<?xml version="1.0" encoding="UTF-8" standalone="no"?>
<!-- Created with Inkscape (http://www.inkscape.org/) -->

<svg
   xmlns:dc="http://purl.org/dc/elements/1.1/"
   xmlns:cc="http://creativecommons.org/ns#"
   xmlns:rdf="http://www.w3.org/1999/02/22-rdf-syntax-ns#"
   xmlns:svg="http://www.w3.org/2000/svg"
   xmlns="http://www.w3.org/2000/svg"
   xmlns:sodipodi="http://sodipodi.sourceforge.net/DTD/sodipodi-0.dtd"
   xmlns:inkscape="http://www.inkscape.org/namespaces/inkscape"
   version="1.1"
   id="svg3713"
   width="655"
   height="451"
   viewBox="0 0 655 451"
   sodipodi:docname="HackathonLogo.svg"
   inkscape:version="0.92.4 (5da689c313, 2019-01-14)">
  <metadata
     id="metadata3719">
    <rdf:RDF>
      <cc:Work
         rdf:about="">
        <dc:format>image/svg+xml</dc:format>
        <dc:type
           rdf:resource="http://purl.org/dc/dcmitype/StillImage" />
        <dc:title></dc:title>
      </cc:Work>
    </rdf:RDF>
  </metadata>
  <defs
     id="defs3717" />
  <sodipodi:namedview
     pagecolor="#ffffff"
     bordercolor="#666666"
     borderopacity="1"
     objecttolerance="10"
     gridtolerance="10"
     guidetolerance="10"
     inkscape:pageopacity="0"
     inkscape:pageshadow="2"
     inkscape:window-width="1920"
     inkscape:window-height="1017"
     id="namedview3715"
     showgrid="false"
     inkscape:zoom="1.8802661"
     inkscape:cx="327.5"
     inkscape:cy="225.5"
     inkscape:window-x="-8"
     inkscape:window-y="-8"
     inkscape:window-maximized="1"
     inkscape:current-layer="svg3713" />
  <path
     style="fill:#000000"
     d="m 372.72287,394.08386 c 0,-0.18866 -7.01296,-20.32616 -15.58435,-44.75 -8.5714,-24.42383 -19.10786,-54.53197 -23.41437,-66.90697 -4.30651,-12.375 -13.67124,-39.15 -20.81051,-59.5 C 291.70068,162.4608 263.97597,83.309166 256.69478,62.426887 c -3.73957,-10.725 -7.11122,-20.2875 -7.49255,-21.25 -0.64227,-1.621139 0.44602,-1.75 14.77966,-1.75 h 15.473 l 2.07729,5.75 c 1.14251,3.1625 8.64294,24.65 16.66763,47.749999 8.02468,23.100004 16.34665,46.950004 18.49327,53.000004 2.14661,6.05 8.92316,25.4 15.059,43 21.99461,63.08919 26.07623,74.80306 33.53761,96.25 4.16176,11.9625 10.66054,30.525 14.44175,41.25 11.06758,31.39204 22.99143,66.21301 22.99143,67.14142 0,0.47222 -6.75,0.85858 -15,0.85858 -8.25,0 -15,-0.15436 -15,-0.34303 z m 38.41519,-20.0239 c -9.46089,-4.28637 -9.95827,-16.77482 -0.84042,-21.10152 2.74904,-1.30451 5.50434,-1.64516 11.04405,-1.36542 7.09498,0.35828 7.38118,0.28564 7.38118,-1.87364 0,-3.68818 -4.09089,-5.60912 -10.75712,-5.05119 -3.15858,0.26436 -6.44961,0.78537 -7.3134,1.1578 -1.17645,0.50723 -1.84398,-0.21386 -2.66033,-2.87379 -0.98276,-3.20213 -0.87761,-3.66578 1.07052,-4.72025 1.18818,-0.64313 5.76033,-1.35491 10.16033,-1.58173 7.14274,-0.36822 8.37505,-0.15904 11.5,1.95206 5.92059,3.99974 6.99667,7.47083 6.99845,22.57461 l 0.002,13.25 h -4.5 c -3.85546,0 -4.5,-0.29075 -4.5,-2.02994 0,-2.01434 -0.0222,-2.01348 -2.89592,0.11111 -3.61252,2.67085 -10.59166,3.40821 -14.68889,1.5519 z m 14.82907,-7.61057 c 2.79142,-2.19573 4.08103,-6.51329 2.36585,-7.92076 -2.39531,-1.96559 -11.92214,-1.64685 -14.03868,0.46969 -2.12324,2.12324 -2.01745,7.06941 0.17857,8.34847 2.914,1.69725 8.7777,1.23945 11.49426,-0.8974 z m 25.08448,7.54351 c -4.88712,-2.16249 -5.61763,-4.53966 -5.45593,-17.75413 l 0.14454,-11.81188 h -2.50867 c -2.26013,0 -2.50868,-0.39631 -2.50868,-4 0,-3.63235 0.23697,-4 2.5782,-4 2.28794,0 2.55304,-0.3659 2.35464,-3.25 -0.44846,-6.51911 -0.29223,-6.75 4.56716,-6.75 h 4.5 v 4.94521 4.94521 l 4.75,0.30479 c 4.70421,0.30185 4.75299,0.34094 5.06037,4.05479 l 0.31036,3.75 h -5.06036 -5.06037 v 10.46482 c 0,11.7085 0.82104,13.12097 6.91814,11.90155 2.89506,-0.57901 3.08186,-0.43438 3.08186,2.38619 0,1.6514 -0.5625,3.45677 -1.25,4.01193 -2.27834,1.83977 -9.08261,2.27883 -12.42126,0.80152 z m 69.29603,0.0221 c -4.93292,-1.83114 -10.26994,-6.9829 -11.68927,-11.28352 -4.40366,-13.34323 4.27631,-26.22212 17.87722,-26.52528 6.73592,-0.15015 11.55049,1.77346 15.56751,6.21982 6.30086,6.9743 7.00778,15.91769 1.88294,23.82137 -4.77777,7.36841 -15.35268,10.84334 -23.6384,7.76761 z m 13.07441,-8.54622 c 2.27401,-1.38655 3.52584,-3.16383 4.32879,-6.14576 2.1268,-7.89834 -2.89291,-15.09613 -10.52797,-15.09613 -10.53183,0 -14.74782,13.60647 -6.39402,20.63572 3.68888,3.10399 8.14485,3.31847 12.5932,0.60615 z m -64.69918,-17.04189 v -26 h 4.5 4.5 v 9.58889 9.5889 l 3.07673,-2.5889 c 1.69219,-1.42389 4.05469,-2.65431 5.25,-2.73426 4.77788,-0.31958 9.17078,0.42525 11.49682,1.94933 4.21488,2.76169 5.17645,6.87882 5.17645,22.16392 v 14.03212 h -4.5 -4.5 v -13 c 0,-11.66667 -0.20513,-13.20513 -2,-15 -1.1,-1.1 -3.3132,-2 -4.91821,-2 -7.53873,0 -9.08179,3.13485 -9.08179,18.45034 v 11.54966 h -4.5 -4.5 z m 83.22793,7.25 0.27207,-18.75 4.25,-0.3075 c 3.99235,-0.28885 4.25,-0.14937 4.25,2.30089 v 2.60839 l 3.59294,-2.74047 c 6.3968,-4.87907 16.43984,-3.06617 19.88129,3.58885 0.9056,1.75125 1.42578,6.71488 1.5302,14.6015 0.25384,19.17083 0.69851,17.44834 -4.50443,17.44834 h -4.5 v -13 c 0,-11.66667 -0.20513,-13.20513 -2,-15 -2.14491,-2.14491 -6.94185,-2.63667 -9.96056,-1.02111 -2.92905,1.56758 -4.03944,6.56238 -4.03944,18.17033 v 10.85078 h -4.52207 -4.52206 z M 215.22288,323.36593 c -4.54681,-1.33462 -9.73568,-6.1311 -12.51052,-11.56444 -2.07507,-4.06315 -2.48948,-6.28956 -2.48948,-13.3746 0,-7.33606 0.39331,-9.30101 2.87226,-14.34956 6.62736,-13.4971 22.82296,-16.50785 33.16539,-6.16542 5.00948,5.00948 7.46235,11.58839 7.46235,20.01498 0,18.15022 -13.19791,29.93065 -28.5,25.43904 z m 13.69072,-10.68904 c 1.4107,-1.5125 3.15941,-3.875 3.88603,-5.25 1.9166,-3.62685 1.69156,-15.77564 -0.36421,-19.6617 -6.16984,-11.66295 -19.68211,-9.0331 -22.56106,4.39098 -1.87038,8.72129 1.2234,19.05469 6.6529,22.22106 0.93259,0.54386 3.52393,1.00253 5.75853,1.01925 3.16688,0.0237 4.62857,-0.57607 6.62781,-2.71959 z m 54.57331,10.80713 c -1.50477,-0.48216 -4.31381,-1.85182 -6.2423,-3.0437 l -3.50636,-2.16704 2.611,-3.4232 c 1.43605,-1.88275 2.77171,-3.42319 2.96814,-3.42319 0.19643,0 1.83052,0.89832 3.63131,1.99626 3.9776,2.42515 10.47539,2.60174 13.65988,0.37124 2.19207,-1.53539 6.044,-8.49637 6.09233,-11.0097 0.0136,-0.70715 -1.40636,-0.39685 -3.72804,0.81469 -4.95785,2.58719 -14.96943,2.17409 -18.92744,-0.78099 -5.18718,-3.87279 -6.82513,-7.09113 -6.78966,-13.34071 0.0555,-9.77502 5.68691,-15.94296 16.07243,-17.60367 9.0086,-1.44053 18.94425,4.6646 21.27929,13.07543 1.44988,5.22251 1.42413,19.27318 -0.0432,23.57823 -1.92787,5.65616 -6.53119,11.52341 -10.54632,13.44202 -4.32104,2.06478 -12.48043,2.81223 -16.53103,1.51433 z m 15.8802,-28.42754 c 3.76525,-3.23874 3.8161,-8.62379 0.11637,-12.32353 -3.58475,-3.58475 -10.61412,-3.73176 -14.26875,-0.29841 -3.60299,3.38483 -3.52943,10.03104 0.143,12.91977 3.74912,2.94906 10.399,2.80769 14.00938,-0.29783 z m -140.63618,24.62041 c 0.008,-3.55217 0.64576,-4.29644 12.09611,-14.10791 12.51466,-10.72343 15.51038,-14.84537 14.29852,-19.67384 -1.78953,-7.13003 -12.55554,-7.11179 -17.77782,0.0301 -1.29346,1.76891 -1.46178,1.75395 -4.48438,-0.39833 -1.72726,-1.22991 -3.14048,-2.72469 -3.14048,-3.32172 0,-0.59704 1.85201,-2.79529 4.11559,-4.88501 7.73922,-7.14481 19.14248,-7.34943 26.64047,-0.47803 3.21692,2.94808 3.63384,3.91538 3.96101,9.18982 0.49926,8.04874 -1.90941,11.89191 -13.55344,21.62533 l -9.29473,7.76959 h 12.06555 12.06555 v 4 4 h -18.5 -18.5 l 0.008,-3.75 z m 97.99195,-17.20217 v -20.95217 l -4.46684,1.34432 c -3.99991,1.2038 -4.51428,1.17267 -4.92065,-0.29783 -0.2496,-0.90318 -0.73007,-2.60809 -1.06771,-3.78868 -0.54316,-1.89919 0.10383,-2.38891 5.61482,-4.25 3.4258,-1.15691 7.94135,-2.10347 10.03455,-2.10347 h 3.80582 v 25.5 25.5 h -4.49999 -4.5 z m 185.3147,18.48851 c -4.21553,-1.83346 -6.69086,-6.69524 -6.00652,-11.79738 1.03013,-7.68023 7.45621,-11.35277 18.33648,-10.47941 5.73968,0.46073 6.35533,0.32756 6.35533,-1.3747 0,-1.03667 -0.95044,-2.83529 -2.11208,-3.99693 -1.80487,-1.80487 -2.93216,-2.03637 -7.75,-1.59156 -3.10086,0.28629 -6.56562,0.81704 -7.69947,1.17943 -1.71371,0.54774 -2.24408,0.0641 -3.14339,-2.86607 -1.06939,-3.48438 -1.03989,-3.53954 2.56154,-4.78931 2.00387,-0.69538 6.8729,-1.27695 10.82007,-1.29237 5.71287,-0.0223 7.75254,0.39439 10,2.04304 5.27873,3.87228 6.32006,7.5256 6.32178,22.17892 l 0.002,13.25 h -4.5 c -3.17847,0 -4.5,-0.40885 -4.5,-1.3922 0,-1.09979 -0.77954,-0.99477 -3.71144,0.5 -4.33808,2.21168 -10.47049,2.38718 -14.97385,0.42854 z m 16.57149,-7.28634 c 1.15928,-0.9625 2.37761,-3.14865 2.70741,-4.8581 0.51373,-2.66285 0.26346,-3.1981 -1.74699,-3.73635 -4.21098,-1.12737 -10.35405,-0.68886 -12.62411,0.90115 -2.73548,1.916 -3.01603,6.88174 -0.47251,8.3632 2.84102,1.65474 9.79889,1.27068 12.1362,-0.6699 z m 25.91747,6.70945 c -6.92347,-3.65652 -11.55077,-12.79785 -10.1614,-20.07404 0.82597,-4.32563 3.60828,-9.90013 6.03792,-12.09727 5.36409,-4.85079 15.67025,-6.18049 22.17655,-2.86123 5.91396,3.01708 6.48765,4.22212 3.52906,7.41282 l -2.5334,2.73217 -3.29424,-2.03595 c -7.00141,-4.32711 -14.80182,-1.36905 -16.51631,6.26329 -2.51153,11.1805 7.24274,18.48246 16.85862,12.62022 l 3.40046,-2.07307 2.51952,2.51952 c 2.17141,2.17141 2.33257,2.74478 1.16643,4.14989 -4.45247,5.36491 -16.23226,7.11469 -23.18321,3.44365 z m -94.98505,-8.70945 c -0.17524,-5.3625 -0.0936,-16.5 0.18138,-24.75 0.47428,-14.22839 0.60288,-14.99261 2.5,-14.8563 1.1,0.079 3.0125,0.19154 4.25,0.25 2.17625,0.10282 2.25,0.43409 2.25,10.1063 v 10 h 11.5 11.5 v -9.91667 c 0,-6.37368 0.39633,-10.04877 1.10931,-10.28643 0.61012,-0.20338 2.63512,-0.19165 4.5,0.0261 l 3.39069,0.39584 v 24.3906 24.39059 h -4.5 -4.5 v -10 -10 h -11.5 -11.5 v 10 10 h -4.43138 -4.43138 l -0.31862,-9.75 z m 123.18138,-16.25 v -26 h 4.5 4.5 v 15.22654 15.22654 l 7.77212,-7.72654 c 7.69938,-7.65422 7.82094,-7.72654 12.98745,-7.72654 h 5.21533 l -7.35644,7.67302 -7.35645,7.67301 5.71047,8.07699 c 3.14075,4.44234 6.50855,9.31448 7.484,10.82698 l 1.77354,2.75 -5.36501,-0.0204 -5.36501,-0.0204 -3.26176,-5.22956 c -1.79397,-2.87625 -4.12639,-6.34875 -5.18316,-7.71666 l -1.92139,-2.48711 -2.56685,2.41142 c -2.13261,2.0034 -2.56684,3.31228 -2.56684,7.73702 v 5.32569 h -4.5 -4.5 z M 53.722875,246.96725 c 0,-0.48896 15.139432,-28.95125 28.478753,-53.54036 3.431243,-6.325 6.742078,-12.46398 7.357411,-13.64217 1.027546,-1.96747 0.655756,-2.37524 -4.55882,-5 -7.312503,-3.68076 -16.146649,-11.86438 -19.54225,-18.10322 -14.776754,-27.14976 0.002,-59.427614 30.133837,-65.814364 9.174054,-1.94453 104.583324,-2.11923 103.906384,-0.19025 -0.48326,1.37707 -2.51441,6.73361 -36.11788,95.250004 l -23.15743,61 -12.25,0.28078 c -7.22943,0.1657 -12.25,-0.10683 -12.25,-0.66497 0,-0.52016 1.73065,-5.14651 3.8459,-10.28078 2.11524,-5.13427 6.86917,-16.76003 10.56429,-25.83503 3.69511,-9.075 7.32158,-17.85 8.05882,-19.5 0.73723,-1.65 2.03534,-4.6875 2.88468,-6.75 l 1.54426,-3.75 h -13.21811 -13.2181 l -16.575499,33.25 -16.575484,33.25 -14.65538,0.27673 c -8.060462,0.15221 -14.655382,0.0458 -14.655382,-0.23637 z M 154.48677,142.67689 c 3.91657,-8.6625 8.71814,-19.2541 10.67014,-23.53689 l 3.5491,-7.78689 -34.74157,0.28689 c -34.250379,0.28283 -34.809649,0.32041 -39.557547,2.65804 -3.025749,1.48973 -5.813707,3.87881 -7.5,6.42697 -2.420747,3.658 -2.684016,4.95294 -2.684016,13.20188 0,8.28525 0.256717,9.53398 2.727608,13.26775 3.01153,4.55073 10.10284,9.21135 15.669725,10.29862 1.98147,0.387 12.85981,0.75538 24.17409,0.81863 l 20.57141,0.115 z m 9.2011,104 c -0.0193,-0.4125 13.14324,-35.97064 29.25,-79.01809 l 29.28501,-78.268094 10.45066,0.26809 10.45067,0.26809 29.27674,78.000004 c 16.10222,42.9 29.28692,78.3375 29.29934,78.75 0.0124,0.4125 -5.80891,0.75 -12.9363,0.75 h -12.95887 l -1.79113,-5.10325 c -0.98511,-2.80678 -3.81612,-10.79428 -6.29112,-17.75 l -4.5,-12.64675 h -30.49999 -30.5 l -6.40286,17.75 -6.40287,17.75 h -12.84713 c -7.06593,0 -12.8629,-0.3375 -12.88215,-0.75 z m 92.03501,-56.65923 c 0,-0.4202 -21.55828,-63.89275 -22.61737,-66.59077 -0.38423,-0.97882 -1.03552,-0.11018 -1.87445,2.5 -0.70709,2.2 -5.8357,17.3778 -11.3969,33.72845 -5.5612,16.35064 -10.11128,29.96314 -10.11128,30.25 0,0.28685 10.35,0.52155 23,0.52155 12.65,0 23,-0.18416 23,-0.40923 z m 118.09083,55.14815 c -0.47282,-1.2436 -2.69225,-7.6561 -4.93207,-14.25 -2.23982,-6.59391 -10.21223,-29.98892 -17.71648,-51.98892 -7.50424,-22 -17.148,-50.35 -21.43058,-63 -4.28257,-12.65 -8.11032,-23.787504 -8.50609,-24.750004 -0.6643,-1.61552 0.30682,-1.74921 12.63739,-1.73979 l 13.35699,0.0102 4.15176,13.739794 c 2.28347,7.55689 10.57079,34.56879 18.41626,60.02647 l 14.2645,46.28667 17.34221,-56.28667 c 9.53822,-30.95768 17.80574,-57.974184 18.37228,-60.036684 l 1.03008,-3.75 h 12.96145 c 7.68825,0 12.96146,0.3938 12.96146,0.96796 0,0.53237 -3.18565,10.319874 -7.07923,21.750004 -3.89357,11.43012 -14.26306,41.93204 -23.0433,67.78204 -8.78024,25.85 -17.58094,51.6125 -19.5571,57.25 l -3.59301,10.25 h -9.38843 c -8.82966,0 -9.4396,-0.13457 -10.24809,-2.26108 z m 44.3457,-0.45721 c 0.62729,-2.6072 4.74847,-15.50802 28.04196,-87.78171 5.14061,-15.95 12.10521,-37.6625 15.47688,-48.25 l 6.13032,-19.250004 25.70715,0.0174 c 28.17254,0.019 35.02061,0.87104 44.56539,5.54467 7.22038,3.53547 16.01785,12.434254 19.71098,19.937974 10.324,20.97637 0.65708,49.39801 -20.15127,59.24657 -3.19965,1.51438 -5.83715,3.20343 -5.86112,3.75343 -0.024,0.55 8.05344,16.00039 17.94979,34.33421 9.89636,18.33381 17.99338,33.74631 17.99338,34.25 0,0.51165 -6.3046,0.91579 -14.28649,0.91579 h -14.28649 l -16.72307,-33.52252 -16.72307,-33.52252 -18.17278,0.27252 -18.17279,0.27252 -9.84867,24 c -5.41677,13.2 -11.54201,28.05 -13.61166,33 l -3.76299,9 -12.32236,0.28171 -12.32236,0.28172 z m 101.55723,-87.37379 c 13.9103,-2.98323 22.16319,-17.88714 17.56714,-31.72454 -3.60401,-10.85064 -11.58498,-14.38428 -31.53747,-13.96346 l -13.27936,0.28008 -8.36156,21.5 c -4.59886,11.825 -8.6216,22.2875 -8.93943,23.25 -0.53746,1.62763 0.82191,1.75 19.4403,1.75 11.00999,0 22.30966,-0.49144 25.11038,-1.09208 z"
     id="path3723"
     inkscape:connector-curvature="0" />
</svg>
